<svg xmlns="http://www.w3.org/2000/svg" viewBox="0 0 1200 700">
  <rect width="1200" height="700" fill="#07131f"/>
  <rect x="70" y="80" width="1060" height="540" rx="30" fill="#0d2236"/>
  <rect x="120" y="130" width="360" height="240" rx="24" fill="#12253c" stroke="#2ad7ff" stroke-width="3"/>
  <rect x="150" y="168" width="140" height="18" rx="9" fill="#2ad7ff"/>
  <rect x="150" y="200" width="220" height="12" rx="6" fill="#5b6f84"/>
  <rect x="150" y="226" width="180" height="12" rx="6" fill="#5b6f84"/>
  <rect x="150" y="252" width="140" height="12" rx="6" fill="#5b6f84"/>
  <rect x="150" y="292" width="260" height="46" rx="16" fill="#102636" stroke="#2ad7ff" stroke-width="2"/>
  <rect x="172" y="308" width="96" height="12" rx="6" fill="#2ad7ff"/>
  <rect x="520" y="130" width="320" height="260" rx="24" fill="#152d44" stroke="#ff5e99" stroke-width="3"/>
  <rect x="550" y="174" width="120" height="140" rx="18" fill="#ff5e99" opacity="0.95"/>
  <rect x="690" y="174" width="120" height="140" rx="18" fill="#ffffff" opacity="0.18"/>
  <circle cx="610" cy="244" r="52" fill="#ffffff" opacity="0.15"/>
  <circle cx="610" cy="244" r="30" fill="#ff5e99"/>
  <rect x="548" y="330" width="240" height="14" rx="7" fill="#ffffff" opacity="0.9"/>
  <rect x="548" y="356" width="180" height="12" rx="6" fill="#7a8aa0"/>
  <rect x="140" y="410" width="420" height="150" rx="20" fill="#102636" stroke="#2ad7ff" stroke-width="3"/>
  <rect x="170" y="450" width="190" height="14" rx="7" fill="#2ad7ff"/>
  <rect x="170" y="480" width="230" height="12" rx="6" fill="#5b6f84"/>
  <rect x="170" y="506" width="170" height="12" rx="6" fill="#5b6f84"/>
  <rect x="620" y="410" width="300" height="150" rx="20" fill="#102636" stroke="#ff5e99" stroke-width="3"/>
  <rect x="650" y="450" width="150" height="14" rx="7" fill="#ff5e99"/>
  <rect x="650" y="480" width="210" height="12" rx="6" fill="#5b6f84"/>
  <rect x="650" y="506" width="180" height="12" rx="6" fill="#5b6f84"/>
</svg>