<svg xmlns="http://www.w3.org/2000/svg" viewBox="0 0 1200 700">
  <rect width="1200" height="700" fill="#07131f"/>
  <rect x="80" y="90" width="1040" height="520" rx="28" fill="#112437"/>
  <rect x="180" y="150" width="280" height="420" rx="38" fill="#162f45" stroke="#2ad7ff" stroke-width="3"/>
  <rect x="220" y="210" width="200" height="50" rx="12" fill="#2ad7ff" opacity="0.95"/>
  <rect x="220" y="290" width="180" height="14" rx="7" fill="#f4f7fb" opacity="0.9"/>
  <rect x="220" y="320" width="140" height="12" rx="6" fill="#7f8fa4"/>
  <circle cx="320" cy="430" r="72" fill="#ff5e99"/>
  <path d="M320 380c20-30 52-30 72 0 12 18 12 37 0 56-24 31-72 31-96 0-12-19-12-38 0-56 16-20 46-22 24 0Z" fill="#ffffff" opacity="0.95"/>
  <rect x="520" y="180" width="420" height="300" rx="24" fill="#18324a" stroke="#ff5e99" stroke-width="3"/>
  <rect x="560" y="220" width="340" height="18" rx="9" fill="#ffffff" opacity="0.9"/>
  <rect x="560" y="270" width="280" height="12" rx="6" fill="#7f8fa4"/>
  <rect x="560" y="300" width="230" height="12" rx="6" fill="#7f8fa4"/>
  <rect x="560" y="330" width="300" height="12" rx="6" fill="#7f8fa4"/>
  <rect x="560" y="360" width="200" height="12" rx="6" fill="#7f8fa4"/>
  <rect x="560" y="430" width="240" height="90" rx="16" fill="#0f2336" stroke="#2ad7ff" stroke-width="2"/>
  <rect x="590" y="460" width="120" height="12" rx="6" fill="#2ad7ff"/>
  <text x="180" y="620" font-family="Segoe UI, Arial" font-size="36" font-weight="700" fill="#f4f7fb">Health Platform UI</text>
</svg>