<svg xmlns="http://www.w3.org/2000/svg" viewBox="0 0 1200 700">
  <rect width="1200" height="700" fill="#07131f"/>
  <rect x="80" y="90" width="1040" height="520" rx="28" fill="#13273b"/>
  <rect x="120" y="140" width="260" height="140" rx="22" fill="#18344a" stroke="#2ad7ff" stroke-width="3"/>
  <rect x="120" y="320" width="260" height="140" rx="22" fill="#18344a" stroke="#ff5e99" stroke-width="3"/>
  <rect x="420" y="140" width="300" height="320" rx="24" fill="#1f3850" stroke="#2ad7ff" stroke-width="3"/>
  <rect x="460" y="190" width="220" height="120" rx="16" fill="#2ad7ff" opacity="0.95"/>
  <rect x="460" y="340" width="180" height="14" rx="7" fill="#ffffff" opacity="0.9"/>
  <rect x="460" y="370" width="140" height="12" rx="6" fill="#7f8fa4"/>
  <rect x="760" y="140" width="320" height="320" rx="24" fill="#1f3850" stroke="#ff5e99" stroke-width="3"/>
  <rect x="800" y="188" width="240" height="140" rx="16" fill="#ff5e99" opacity="0.95"/>
  <rect x="800" y="352" width="186" height="14" rx="7" fill="#ffffff" opacity="0.9"/>
  <rect x="800" y="382" width="150" height="12" rx="6" fill="#7f8fa4"/>
  <rect x="170" y="500" width="760" height="70" rx="18" fill="#102636" stroke="#2ad7ff" stroke-width="2"/>
  <rect x="200" y="520" width="220" height="14" rx="7" fill="#2ad7ff"/>
  <rect x="200" y="546" width="180" height="10" rx="5" fill="#7f8fa4"/>
  <text x="120" y="620" font-family="Segoe UI, Arial" font-size="36" font-weight="700" fill="#f4f7fb">E-commerce UI</text>
</svg>