<svg xmlns="http://www.w3.org/2000/svg" viewBox="0 0 1200 700">
  <rect width="1200" height="700" fill="#07131f"/>
  <rect x="80" y="90" width="1040" height="520" rx="28" fill="#0e2237"/>
  <rect x="120" y="140" width="360" height="220" rx="24" fill="#14283f" stroke="#2ad7ff" stroke-width="3"/>
  <rect x="160" y="182" width="170" height="18" rx="9" fill="#2ad7ff"/>
  <rect x="160" y="218" width="120" height="12" rx="6" fill="#5b6f84"/>
  <rect x="160" y="244" width="200" height="12" rx="6" fill="#5b6f84"/>
  <rect x="530" y="140" width="320" height="260" rx="24" fill="#1b3148" stroke="#ff5e99" stroke-width="3"/>
  <circle cx="690" cy="270" r="76" fill="#ff5e99" opacity="0.95"/>
  <circle cx="690" cy="270" r="44" fill="#07131f"/>
  <rect x="140" y="410" width="420" height="140" rx="18" fill="#102636" stroke="#2ad7ff" stroke-width="3"/>
  <rect x="170" y="442" width="180" height="14" rx="7" fill="#2ad7ff"/>
  <rect x="170" y="470" width="220" height="12" rx="6" fill="#5b6f84"/>
  <rect x="170" y="494" width="160" height="12" rx="6" fill="#5b6f84"/>
  <rect x="620" y="410" width="300" height="140" rx="18" fill="#102636" stroke="#ff5e99" stroke-width="3"/>
  <rect x="650" y="444" width="140" height="14" rx="7" fill="#ff5e99"/>
  <rect x="650" y="470" width="220" height="12" rx="6" fill="#5b6f84"/>
  <rect x="650" y="494" width="180" height="12" rx="6" fill="#5b6f84"/>
  <text x="120" y="620" font-family="Segoe UI, Arial" font-size="36" font-weight="700" fill="#f4f7fb">AI Book Experience</text>
</svg>